<svg width="32" height="32" viewBox="0 0 32 32" fill="none" xmlns="http://www.w3.org/2000/svg">
<path d="M0 1.5C0 0.66875 0.599528 0 1.34474 0H3.89413C5.12681 0 6.21941 0.8 6.72929 2H29.7579C31.2315 2 32.3073 3.5625 31.9207 5.15L29.6234 14.6687C29.1472 16.6312 27.5503 18 25.7293 18H9.56444L9.86701 19.7812C9.99027 20.4875 10.545 21 11.1893 21H27.343C28.0882 21 28.6877 21.6687 28.6877 22.5C28.6877 23.3313 28.0882 24 27.343 24H11.1893C9.25067 24 7.58656 22.4625 7.22796 20.3438L4.33678 3.40625C4.29755 3.16875 4.11265 3 3.89413 3H1.34474C0.599528 3 0 2.33125 0 1.5ZM7.17193 29C7.17193 28.606 7.24149 28.2159 7.37665 27.8519C7.51181 27.488 7.70992 27.1573 7.95966 26.8787C8.2094 26.6001 8.50588 26.3791 8.83219 26.2284C9.15849 26.0776 9.50822 26 9.8614 26C10.2146 26 10.5643 26.0776 10.8906 26.2284C11.2169 26.3791 11.5134 26.6001 11.7631 26.8787C12.0129 27.1573 12.211 27.488 12.3462 27.8519C12.4813 28.2159 12.5509 28.606 12.5509 29C12.5509 29.394 12.4813 29.7841 12.3462 30.1481C12.211 30.512 12.0129 30.8427 11.7631 31.1213C11.5134 31.3999 11.2169 31.6209 10.8906 31.7716C10.5643 31.9224 10.2146 32 9.8614 32C9.50822 32 9.15849 31.9224 8.83219 31.7716C8.50588 31.6209 8.2094 31.3999 7.95966 31.1213C7.70992 30.8427 7.51181 30.512 7.37665 30.1481C7.24149 29.7841 7.17193 29.394 7.17193 29ZM25.9982 26C26.7115 26 27.3956 26.3161 27.9 26.8787C28.4044 27.4413 28.6877 28.2044 28.6877 29C28.6877 29.7956 28.4044 30.5587 27.9 31.1213C27.3956 31.6839 26.7115 32 25.9982 32C25.285 32 24.6009 31.6839 24.0965 31.1213C23.5921 30.5587 23.3088 29.7956 23.3088 29C23.3088 28.2044 23.5921 27.4413 24.0965 26.8787C24.6009 26.3161 25.285 26 25.9982 26ZM14.1197 10C14.1197 10.6875 14.624 11.25 15.2403 11.25H17.7057V14C17.7057 14.6875 18.21 15.25 18.8263 15.25C19.4427 15.25 19.9469 14.6875 19.9469 14V11.25H22.4123C23.0286 11.25 23.5329 10.6875 23.5329 10C23.5329 9.3125 23.0286 8.75 22.4123 8.75H19.9469V6C19.9469 5.3125 19.4427 4.75 18.8263 4.75C18.21 4.75 17.7057 5.3125 17.7057 6V8.75H15.2403C14.624 8.75 14.1197 9.3125 14.1197 10Z" fill="#0E720E"/>
</svg>
