<svg width="21" height="21" viewBox="0 0 21 21" fill="none" xmlns="http://www.w3.org/2000/svg">
<mask id="mask0_45_7" style="mask-type:luminance" maskUnits="userSpaceOnUse" x="0" y="0" width="21" height="21">
<path d="M21 0H0.381821V21H21V0Z" fill="white"/>
</mask>
<g mask="url(#mask0_45_7)">
<path fill-rule="evenodd" clip-rule="evenodd" d="M17.619 12.706C17.1788 13.139 16.9788 13.763 17.0819 14.375L17.7468 18.291C17.954 19.51 16.9953 20.5 15.9077 20.5C15.6211 20.5 15.3252 20.431 15.0386 20.279L11.5593 18.43C11.2872 18.286 10.9892 18.214 10.6902 18.214C10.3923 18.214 10.0944 18.286 9.8222 18.43L6.34293 20.279C6.05633 20.431 5.76041 20.5 5.47382 20.5C4.38626 20.5 3.42752 19.51 3.63468 18.291L4.29966 14.375C4.40275 13.763 4.20276 13.139 3.76251 12.706L0.947151 9.933C-0.160046 8.842 0.451231 6.941 1.9811 6.716L5.87175 6.145C6.47999 6.056 7.00575 5.67001 7.27693 5.11301L9.01711 1.55099C9.35937 0.849995 10.0253 0.5 10.6902 0.5C11.3562 0.5 12.0222 0.849995 12.3644 1.55099L14.1046 5.11301C14.3758 5.67001 14.9015 6.056 15.5098 6.145L19.4004 6.716C20.9303 6.941 21.5416 8.842 20.4344 9.933L17.619 12.706Z" fill="#FFA900"/>
</g>
</svg>
