<svg width="162" height="68" viewBox="0 0 162 68" fill="none" xmlns="http://www.w3.org/2000/svg">
<g clip-path="url(#clip0_12_22)">
<path fill-rule="evenodd" clip-rule="evenodd" d="M146.095 5.91304H6.08727V62.087H146.095V5.91304ZM0 0V68H152.182V0H0Z" fill="url(#paint0_linear_12_22)"/>
<g clip-path="url(#clip1_12_22)">
<path d="M132.784 46.4478H128.493V30.209L141.367 16H109.181L122.056 30.209V46.4478H117.764C113.473 46.4478 113.473 48.4776 113.473 48.4776H137.075C137.075 48.4776 137.075 46.4478 132.784 46.4478ZM136.861 18.0299L132.999 22.0896H117.55L113.902 18.0299H136.861ZM124.201 46.4478V30.209H126.347V46.4478H124.201Z" fill="url(#paint1_linear_12_22)"/>
</g>
<path d="M20.2662 39.376C21.0768 39.376 21.6955 38.8747 22.1222 37.872C22.5595 36.8693 22.7782 35.216 22.7782 32.912V31.296C22.7782 29.6107 22.5755 28.3093 22.1702 27.392C21.7648 26.4747 21.1888 26.016 20.4422 26.016H19.2422V39.376H20.2662ZM20.7622 42.112C20.3782 42.112 19.7808 42.0907 18.9702 42.048C18.1702 42.016 17.3435 42 16.4902 42H13.9462V23.248H16.4902C17.2048 23.2373 17.9835 23.2107 18.8262 23.168C19.6688 23.1253 20.3302 23.104 20.8102 23.104C23.5302 23.104 25.4768 23.8667 26.6502 25.392C27.8342 26.9173 28.4262 29.1413 28.4262 32.064C28.4262 33.056 28.3568 34 28.2182 34.896C28.0902 35.792 27.8448 36.6933 27.4822 37.6C27.1195 38.496 26.6608 39.2693 26.1062 39.92C25.5515 40.5707 24.8155 41.0987 23.8982 41.504C22.9808 41.9093 21.9355 42.112 20.7622 42.112ZM35.2746 42H30.1066V31.648L29.1466 31.056V29.248L32.5866 28.4H33.8826L34.3466 32.208C34.7839 29.5947 36.1866 28.288 38.5546 28.288C38.8212 28.288 39.0986 28.336 39.3866 28.432L38.8426 34.128C38.6186 33.9253 38.1279 33.824 37.3706 33.824C36.2826 33.824 35.5839 34.112 35.2746 34.688V42ZM40.6534 42V31.648L39.6934 31.056V29.344L43.1334 28.4H45.8054V42H40.6534ZM42.9734 26.928L40.3494 24.288V23.728L42.9734 21.104H43.5814L46.3174 23.728V24.288L43.5814 26.928H42.9734ZM53.1808 42H48.0128V31.648L47.0528 31.056V29.344L50.4928 28.4H53.2128V30.464L53.4048 30.224C53.5328 30.0533 53.7195 29.8507 53.9648 29.616C54.2208 29.3813 54.5035 29.152 54.8128 28.928C55.1221 28.6933 55.4901 28.496 55.9168 28.336C56.3541 28.1653 56.7808 28.08 57.1968 28.08C58.6581 28.08 59.6875 28.48 60.2848 29.28C60.8928 30.08 61.1968 31.4187 61.1968 33.296C61.1968 33.36 61.1968 33.456 61.1968 33.584C61.1861 33.712 61.1808 33.8133 61.1808 33.888V42H55.9008V33.424C55.9328 32.4213 55.5061 31.92 54.6208 31.92C54.5568 31.92 54.4928 31.9253 54.4288 31.936C54.3755 31.9467 54.3221 31.9573 54.2688 31.968C54.2261 31.9787 54.1728 32 54.1088 32.032C54.0555 32.0533 54.0075 32.0747 53.9648 32.096C53.9221 32.1067 53.8741 32.1333 53.8208 32.176C53.7675 32.208 53.7248 32.2347 53.6928 32.256C53.6608 32.2773 53.6128 32.3147 53.5488 32.368C53.4955 32.4107 53.4528 32.4427 53.4208 32.464C53.3995 32.4853 53.3568 32.5227 53.2928 32.576C53.2395 32.6187 53.2021 32.6507 53.1808 32.672V42ZM70.9923 42L68.5123 35.456L71.1363 28.4H77.1363L72.9443 34.688L77.2323 42H70.9923ZM62.9763 42V23.904L62.0163 23.328V21.84L67.1523 21.04H68.1923V42H62.9763ZM77.8253 42V31.648L76.8653 31.056V29.344L80.3053 28.4H82.9773V42H77.8253ZM80.1453 26.928L77.5213 24.288V23.728L80.1453 21.104H80.7533L83.4893 23.728V24.288L80.7533 26.928H80.1453ZM90.7527 42H85.5527V31.216H84.0007V29.088L85.6167 28.4V27.008C85.6167 25.9307 85.766 24.9973 86.0647 24.208C86.3633 23.4187 86.7793 22.8053 87.3127 22.368C87.8567 21.9307 88.454 21.616 89.1047 21.424C89.766 21.2213 90.502 21.12 91.3127 21.12C92.038 21.12 92.7207 21.216 93.3607 21.408C94.0007 21.6 94.4007 21.776 94.5607 21.936L93.9527 24.368C93.4407 24.112 92.9127 23.984 92.3687 23.984C92.23 23.984 92.102 23.9947 91.9847 24.016C91.1633 24.144 90.7527 24.8427 90.7527 26.112V28.4H92.8167V31.216H90.7527V42ZM100.745 47.504C99.646 47.504 98.6113 47.344 97.6407 47.024C96.67 46.704 95.9607 46.272 95.5127 45.728L96.3447 44C96.9633 44.352 97.9447 44.528 99.2887 44.528C99.7153 44.528 100.083 44.48 100.393 44.384C100.702 44.288 100.979 44.1173 101.225 43.872C101.47 43.6373 101.657 43.3013 101.785 42.864C101.913 42.4267 101.982 41.888 101.993 41.248V39.872L101.833 40.128C101.726 40.2987 101.561 40.5067 101.337 40.752C101.123 40.9867 100.878 41.2267 100.601 41.472C100.323 41.7067 99.982 41.9093 99.5767 42.08C99.182 42.2507 98.7767 42.336 98.3607 42.336C96.7713 42.336 95.6513 41.8933 95.0007 41.008C94.35 40.112 94.0247 38.608 94.0247 36.496V30.816L93.4487 30.24V28.4H99.2727V37.504C99.2727 37.9947 99.3473 38.3573 99.4967 38.592C99.6567 38.816 99.9713 38.928 100.441 38.928C100.579 38.928 100.718 38.9067 100.857 38.864C100.995 38.8107 101.129 38.7413 101.257 38.656C101.395 38.5707 101.539 38.464 101.689 38.336V30.816L100.809 30.24V28.4H106.905V40.128C106.905 42.4853 106.403 44.304 105.401 45.584C104.398 46.864 102.846 47.504 100.745 47.504Z" fill="url(#paint2_linear_12_22)"/>
</g>
<defs>
<linearGradient id="paint0_linear_12_22" x1="76.0909" y1="0" x2="76.0909" y2="68" gradientUnits="userSpaceOnUse">
<stop stop-color="#117A11"/>
<stop offset="1" stop-color="#0E990E"/>
</linearGradient>
<linearGradient id="paint1_linear_12_22" x1="125.274" y1="16" x2="125.274" y2="48.4776" gradientUnits="userSpaceOnUse">
<stop stop-color="#0E610E"/>
<stop offset="1" stop-color="#0D7D0D"/>
</linearGradient>
<linearGradient id="paint2_linear_12_22" x1="68.6623" y1="13" x2="68.6623" y2="47.5075" gradientUnits="userSpaceOnUse">
<stop stop-color="#117A11"/>
<stop offset="1" stop-color="#0E990E"/>
</linearGradient>
<clipPath id="clip0_12_22">
<rect width="162" height="68" fill="white"/>
</clipPath>
<clipPath id="clip1_12_22">
<rect width="34.3311" height="32.4776" fill="white" transform="translate(107.036 16)"/>
</clipPath>
</defs>
</svg>
